# xmcd
#
# Track frame offsets:
#	183
#	14900
#	30085
#	45783
#	71023
#	88683
#	105113
#	123598
#	145588
#	162390
#	183150
#	195618
#	219675
#
# Disc length: 4440 seconds
#
# Revision: 0
# Processed by: cddbd v1.5.2PL0 Copyright (c) Steve Scherf et al.
# Submitted via: EasyCDDAExtractor 2010.4.0.0
#
DISCID=a611560d
DTITLE=Grant and Forsyth - The Platinum Country Collection [CD1)
DYEAR=1900
DGENRE=
TTITLE0=Sometimes When We Touch
TTITLE1=Somewhere Between
TTITLE2=Always On My Mind
TTITLE3=Medley
TTITLE4=Nobody Loves Me
TTITLE5=To Know You Is To Love You
TTITLE6=An American Trilogy
TTITLE7=I'm Still Be Loving You
TTITLE8=Torn Between To Lovers
TTITLE9=Medley 2
TTITLE10=Love Letters
TTITLE11=Make Believe
TTITLE12=Track Title 13
EXTD=
EXTT0=
EXTT1=
EXTT2=
EXTT3=
EXTT4=
EXTT5=
EXTT6=
EXTT7=
EXTT8=
EXTT9=
EXTT10=
EXTT11=
EXTT12=
PLAYORDER=
